<svg xmlns="http://www.w3.org/2000/svg" enable-background="new 0 0 66 66" viewBox="0 0 66 66"><polygon fill="#B5BABE" points="55.6 47.3 18 47.3 23.5 14.5 61.2 14.5"/><rect width="37.6" height="46.3" x="18" y="1" fill="#E6E6E8"/><rect width="30.2" height="11.4" x="21.7" y="4.3" fill="#E8664A"/><path fill="#FFF" d="M25 7.7v-1h3.2v4.4c0 1.6-.9 2.3-2.1 2.3-.8 0-1.4-.3-2-.8l.6-.9c.4.4.9.6 1.3.6.6 0 1.1-.4 1.1-1.2V7.7H25zM33.1 13.4c-2 0-3.5-1.5-3.5-3.4 0-2 1.5-3.4 3.5-3.4 2 0 3.5 1.4 3.5 3.4C36.7 12 35.1 13.4 33.1 13.4zM33.1 7.6c-1.3 0-2.4 1.1-2.4 2.4 0 1.3 1 2.4 2.4 2.4 1.3 0 2.4-1.1 2.4-2.4C35.5 8.7 34.5 7.6 33.1 7.6zM41 13.4h-2.9V6.7h2.6c1.7 0 2.4.8 2.4 1.8 0 .8-.4 1.2-1 1.4.8.2 1.4.7 1.4 1.6C43.4 12.5 42.7 13.4 41 13.4zM39.2 9.5h1.4c.8 0 1.2-.3 1.2-.8 0-.7-.5-.9-1.2-.9h-1.4V9.5zM39.2 12.3H41c.8 0 1.3-.2 1.3-.9 0-.6-.5-.9-1.4-.9h-1.6V12.3zM45.7 8.4c0 1.5 3.7.5 3.7 3.1 0 2.3-3.3 2.6-5.2.9l.7-.8c1.7 1.4 3.3.9 3.3 0 0-1.5-3.7-.5-3.7-3.1 0-2.2 3.1-2.4 4.7-1.1l-.6.8C47.8 7.5 45.7 7.2 45.7 8.4z"/><g><rect width="30.2" height="2.7" x="21.7" y="18.6" fill="#1E87B7"/><rect width="30.2" height="2.7" x="21.7" y="24.3" fill="#1E87B7"/><rect width="13.6" height="2.7" x="21.7" y="30" fill="#D4D8DB"/><rect width="13.6" height="2.7" x="21.7" y="35.7" fill="#D4D8DB"/><rect width="13.6" height="2.7" x="21.7" y="41.4" fill="#1E87B7"/></g><g><rect width="13.6" height="2.7" x="38.4" y="30" fill="#D4D8DB"/><rect width="13.6" height="2.7" x="38.4" y="35.7" fill="#D4D8DB"/><rect width="13.6" height="2.7" x="38.4" y="41.4" fill="#D4D8DB"/></g><g><path fill="#465C6A" d="M37.7,37h-4.5v8.6h4.5c0.3,0,0.5-0.2,0.5-0.5v-7.5C38.3,37.2,38,37,37.7,37z"/><path fill="#3B4C56" d="M33.2,41.3v4.3h4.5c0.3,0,0.5-0.2,0.5-0.5v-3.8H33.2z"/><path fill="#E6E6E8" d="M28.1,45.4v16.8c0,1.6,1.1,2.8,2.4,2.8c1.3,0,2.4-1.3,2.4-2.8V45.4H28.1z"/><path fill="#D4D8DB" d="M30.5,45.4V65c1.3,0,2.4-1.3,2.4-2.8V45.4H30.5z"/><path fill="#D5B79F" d="M5.1,24.5c0,0,9.1,12.9,28.7,13.3v3.5h-29L5.1,24.5z"/><path fill="#C6A28A" d="M5.1,58.1c0,0,9.1-12.9,28.7-13.3v-3.5h-29L5.1,58.1z"/><path fill="#E8664A" d="M3.7,23.2L3.7,23.2c-1.4,0-2.6,1.1-2.6,2.6v31.2c0,1.4,1.1,2.6,2.6,2.6l0,0c1.4,0,2.6-1.1,2.6-2.6V25.7
			C6.2,24.3,5.1,23.2,3.7,23.2z"/><path fill="#D95239" d="M1.1,41.3v15.6c0,1.4,1.1,2.6,2.6,2.6c1.4,0,2.6-1.1,2.6-2.6V41.3H1.1z"/><path fill="#E8664A" d="M35.3,34.9h-9.6c-0.6,0-1,0.5-1,1v10.6c0,0.6,0.5,1,1,1h9.6c0.6,0,1-0.5,1-1V36
			C36.3,35.4,35.9,34.9,35.3,34.9z"/><path fill="#D95239" d="M36.3,41.3V36c0-0.6-0.5-1-1-1h-4.8v6.4H36.3z"/><path fill="#D95239" d="M24.7,41.3v5.3c0,0.6,0.5,1,1,1h4.8v-6.4H24.7z"/><path fill="#D5B79F" d="M37.9,50.3l-5-2.1v2.1h-6.7c-0.8,0-1.5,0.7-1.5,1.5c0,0.8,0.7,1.5,1.5,1.5h-1.4c-0.8,0-1.5,0.7-1.5,1.5
			c0,0.8,0.7,1.5,1.5,1.5h1.4c-0.8,0-1.5,0.7-1.5,1.5c0,0.8,0.7,1.5,1.5,1.5h1.4c-0.8,0-1.5,0.7-1.5,1.5c0,0.8,0.7,1.5,1.5,1.5
			c0.3,0,8.6,0,8.1,0l4.6-0.6V51.3L37.9,50.3z"/><rect width="25.3" height="11.9" x="39.6" y="50.4" fill="#6FAC43"/><rect width="25.3" height="6" x="39.6" y="56.3" fill="#639C42"/></g></svg>