<svg xmlns="http://www.w3.org/2000/svg" enable-background="new 0 0 66 66" viewBox="0 0 66 66"><rect width="7.2" height="11.6" x="49.8" y="28.1" fill="#E8664A"/><rect width="3.6" height="11.6" x="53.4" y="28.1" fill="#D95239"/><polygon fill="#E8664A" points="53.4 19.9 61.7 28.1 45.2 28.1"/><polygon fill="#D95239" points="53.4 19.9 53.4 28.1 45.2 28.1"/><g><rect width="9.1" height="16.4" x="20.2" y="22" fill="#D5B79F"/><rect width="4.6" height="16.4" x="24.8" y="22" fill="#C6A28A"/><path fill="#FAD22C" d="M44.9,40.5c-2.2-2.3-7.9-4.9-11.7-6.4c-1.4-0.6-2.6-0.9-3.2-1.1c-0.4-0.1-0.6-0.2-0.6-0.2S28.9,37,25.1,37
			c-0.1,0-0.2,0-0.3,0c-0.3,0-0.6,0-0.9,0c-3.1-0.1-3.6-4.2-3.6-4.2s-0.3,0.1-0.9,0.3c-0.7,0.2-1.7,0.6-2.9,1
			c-3.8,1.5-9.5,4.1-11.7,6.3c-5.6,5.8-2.4,24.4-2.4,24.4h22.2l0.3,0.1h22.5C47.3,65,50.5,46.4,44.9,40.5z"/><polygon fill="#E0B624" points="38.6 47.5 39.9 65 37.2 65"/><polygon fill="#E0B624" points="11.3 47.5 10 65 12.8 65"/><g><ellipse cx="24.8" cy="19.1" fill="#D5B79F" rx="11.1" ry="12.2"/><path fill="#C6A28A" d="M13,17c0.8-0.2,1.8,1.1,2.2,2.9c0.4,1.8,0,3.5-0.9,3.7c-0.8,0.2-1.8-1.1-2.2-2.9
					C11.8,18.8,12.2,17.2,13,17z"/><path fill="#D5B79F" d="M36.8,17C36,16.7,35,18,34.7,19.8c-0.4,1.8,0,3.5,0.9,3.7c0.8,0.2,1.8-1.1,2.2-2.9S37.7,17.2,36.8,17z"/><path fill="#C6A28A" d="M24.8,6.9v24.4c-6.1,0-11.1-5.5-11.1-12.2C13.7,12.4,18.7,6.9,24.8,6.9z"/><path fill="#3B4C56" d="M32.2,6.2c0,0.1,0,0.2,0,0.4c0.7-0.1,2.1-0.2,3.4,1c1.8,1.7,2.2,5.6,1,8.8c-1.2,3.2-2,6.1-2,6.1H34
				c0,0,1.3-11.4-3.7-12.8l0,0c-1,0.4-1.9,0.4-1.9,0.4c-1.3,0-2.5,0-3.6,0V1.3C31.9-0.3,32.2,6.2,32.2,6.2z"/><path fill="#465C6A" d="M35.7,7.6c-1.3-1.2-2.7-1.1-3.4-1c0-0.1,0-0.2,0-0.4c0,0-0.3-6.8-7.9-4.8S13.1,9.3,13.1,9.3
				s-0.8,1.1-0.3,4.2c0.5,3.1,1.1,8.7,1.1,8.7h0.9l1.1-9.8c12.2,2.9,14.4-2.7,14.4-2.7c5,1.4,3.7,12.8,3.7,12.8h0.7
				c0,0,0.8-2.9,2-6.1S37.5,9.2,35.7,7.6z"/><path fill="#3B4C56" d="M35.7,7.6c-1.3-1.2-2.7-1.1-3.4-1c0-0.1,0-0.2,0-0.4c0,0-0.3-6.4-7.3-4.9L24.8,13
				c4.4-0.8,5.5-3.3,5.5-3.4c5,1.4,3.7,12.8,3.7,12.8h0.7c0,0,0.8-2.9,2-6.1S37.5,9.2,35.7,7.6z"/></g></g><g><path fill="#A3CD44" d="M63.5,46.8H33.9c-0.6,0-1.1,0.5-1.1,1.1v16c0,0.6,0.5,1.1,1.1,1.1h29.6c0.6,0,1.1-0.5,1.1-1.1v-16
				C64.6,47.3,64.1,46.8,63.5,46.8z"/><path fill="#6FAC43" d="M33.9,46.8c-0.6,0-1.1,0.5-1.1,1.1v16c0,0.6,0.5,1.1,1.1,1.1h14.8V46.8H33.9z"/><rect width="27.4" height="13.9" x="35" y="49" fill="#6FAC43"/><rect width="13.7" height="13.9" x="35" y="49" fill="#A3CD44"/><circle cx="48.7" cy="55.9" r="4.7" fill="#A3CD44"/><path fill="#A3CD44" d="M48.7,51.2v9.4c2.6,0,4.7-2.1,4.7-4.7S51.3,51.2,48.7,51.2z"/><path fill="#6FAC43" d="M44,55.9c0,2.6,2.1,4.7,4.7,4.7v-9.4C46.1,51.2,44,53.3,44,55.9z"/><g><path fill="#A3CD44" d="M57.5,58.6v-0.5c-0.6-0.1-1.1-0.3-1.6-0.7l0.5-0.6c0.4,0.3,0.7,0.5,1.1,0.6v-1.3
					c-0.8-0.2-1.4-0.5-1.4-1.3c0-0.8,0.6-1.3,1.4-1.3v-0.3h0.4v0.3c0.5,0,0.9,0.2,1.4,0.5l-0.4,0.6c-0.3-0.2-0.6-0.3-0.9-0.4v1.2h0
					c0.8,0.2,1.4,0.5,1.4,1.3c0,0.8-0.7,1.3-1.5,1.3v0.5H57.5z M56.9,54.8c0,0.4,0.3,0.5,0.6,0.6v-1.1
					C57.2,54.3,56.9,54.4,56.9,54.8z M58.6,56.9c0-0.4-0.3-0.5-0.7-0.6v1.2C58.3,57.4,58.6,57.2,58.6,56.9z"/><path fill="#639C42" d="M39.7,58.6v-0.5c-0.6-0.1-1.1-0.3-1.6-0.7l0.5-0.6c0.4,0.3,0.7,0.5,1.1,0.6v-1.3
					c-0.8-0.2-1.4-0.5-1.4-1.3c0-0.8,0.6-1.3,1.4-1.3v-0.3h0.4v0.3c0.5,0,0.9,0.2,1.4,0.5L41,54.6c-0.3-0.2-0.6-0.3-0.9-0.4v1.2h0
					c0.8,0.2,1.4,0.5,1.4,1.3c0,0.8-0.7,1.3-1.5,1.3v0.5H39.7z M39.2,54.4c-0.1,0.1-0.2,0.2-0.2,0.4c0,0.1,0,0.3,0.1,0.3
					c0.1,0.1,0.3,0.2,0.5,0.2v-1.1C39.5,54.3,39.3,54.3,39.2,54.4z M40.8,56.9c0-0.4-0.3-0.5-0.7-0.6v1.2
					C40.4,57.4,40.8,57.2,40.8,56.9z"/></g></g></svg>