<?xml version="1.0" encoding="UTF-8" standalone="no"?><svg xmlns="http://www.w3.org/2000/svg" xmlns:xlink="http://www.w3.org/1999/xlink" width="20px" height="20px" viewBox="0 0 20 20" version="1.1"><title>file_pdf [#1729]</title><g id="Page-1" stroke="none" stroke-width="1" fill="none" fill-rule="evenodd"><g id="Dribbble-Light-Preview" transform="translate(-140.000000, -1399.000000)" fill="#000"><g id="icons" transform="translate(56.000000, 160.000000)"><path d="M97.98 1239H84v10h2v-8h10v6h6v2h2v-3.562L97.98 1239zM88 1254.106a1 1 0 0 0-1-1h-1v2h1a1 1 0 0 0 1-1zm2-.104a3 3 0 0 1-3 3h-1v2h-2v-8h3a3 3 0 0 1 3 3zm5 .104c0-.553-.448-1.104-1-1.104h-1v4h1c.552 0 1-.343 1-.896v-2zm2-.104v2a3 3 0 0 1-3 3h-3v-8h3c1.65 0 3 1.35 3 3zm7-3v2h-4v2h4v2h-4v2h-2v-8h6z" id="file_pdf-[#1729]"/></g></g></g><metadata><rdf:RDF xmlns:rdf="http://www.w3.org/1999/02/22-rdf-syntax-ns#" xmlns:rdfs="http://www.w3.org/2000/01/rdf-schema#" xmlns:dc="http://purl.org/dc/elements/1.1/"><rdf:Description about="https://iconscout.com/legal#licenses" dc:title="file,pdf" dc:description="file,pdf" dc:publisher="Iconscout" dc:date="2017-09-15" dc:format="image/svg+xml" dc:language="en"><dc:creator><rdf:Bag><rdf:li>Alexandru Stoica</rdf:li></rdf:Bag></dc:creator></rdf:Description></rdf:RDF></metadata></svg>