<svg xmlns="http://www.w3.org/2000/svg" enable-background="new 0 0 128 128" viewBox="0 0 128 128"><path fill="#2e77bb" d="M122,7.1H60.2c-1.9,0-3.5,1.6-3.5,3.5v0.7c0,1.9,1.6,3.5,3.5,3.5v41.9c0,1.6,1.3,2.9,2.9,2.9h56
					c1.6,0,2.9-1.3,2.9-2.9V14.7c1.9,0,3.5-1.6,3.5-3.5v-0.7C125.5,8.6,123.9,7.1,122,7.1z M82.5,48.4h-7.8V31.3h7.8V48.4z M95,48.4
					h-7.8V18.2H95V48.4z M107.4,48.4h-7.8V27.2h7.8V48.4z"/><path fill="#3c4752" d="M122.1 105.8c-4.4-2.2-14-5.4-14-5.4v-3.2l.3-.2c1.8-1.4 3.1-3.5 3.5-5.8l.1-.3h.3c1.5 0 2.7-.9 3.3-2.2.3-.6.5-1.2.5-1.9 0-.5-.1-.9-.3-1.3-.1-.5-.3-.9-.7-1.1l-.9-.5.2-1c1.6-7-3.8-13.2-11-13.4-.2 0-.4 0-.5 0-.2 0-.3 0-.5 0-7.2.2-12.6 6.4-11 13.4l.2 1-.9.5c-.4.3-.6.7-.7 1.1-.2.4-.3.9-.3 1.3 0 .7.2 1.3.5 1.9.5 1.3 1.8 2.2 3.3 2.2h.3l.1.3c.4 2.3 1.6 4.4 3.5 5.8l.3.2v3.2c0 0-9.6 3.2-14 5.4 0 0 0 0 0 0 0 0 0 0 0 0-4.4-2.2-14-5.4-14-5.4v-3.2l.3-.2c1.8-1.4 3.1-3.5 3.5-5.8l.1-.3h.3c1.5 0 2.7-.9 3.3-2.2.3-.6.5-1.2.5-1.9 0-.5-.1-.9-.3-1.3-.1-.5-.3-.9-.7-1.1l-.9-.5.2-1c1.6-7-3.8-13.2-11-13.4-.2 0-.4 0-.5 0-.2 0-.3 0-.5 0-7.2.2-12.6 6.4-11 13.4l.2 1-.9.5c-.4.3-.6.7-.7 1.1-.2.4-.3.9-.3 1.3 0 .7.2 1.3.5 1.9.5 1.3 1.8 2.2 3.3 2.2h.3l.1.3c.4 2.3 1.6 4.4 3.5 5.8l.3.2v3.2c0 0-9.6 3.2-14 5.4 0 0 0 0 0 0 0 0 0 0 0 0-4.4-2.2-14-5.4-14-5.4v-3.2l.3-.2c1.8-1.4 3.1-3.5 3.5-5.8l.1-.3h.3c1.5 0 2.7-.9 3.3-2.2.3-.6.5-1.2.5-1.9 0-.5-.1-.9-.3-1.3-.1-.5-.3-.9-.7-1.1l-.9-.5.2-1c1.6-7-3.8-13.2-11-13.4-.2 0-.4 0-.5 0-.2 0-.3 0-.5 0-7.2.2-12.6 6.4-11 13.4l.2 1L13 84.3c-.4.3-.6.7-.7 1.1-.2.4-.3.9-.3 1.3 0 .7.2 1.3.5 1.9.5 1.3 1.8 2.2 3.3 2.2H16l.1.3c.4 2.3 1.6 4.4 3.5 5.8l.3.2v3.2c0 0-9.6 3.2-14 5.4-1.3.7-2.3 1.9-2.5 3.4-.7 4.4-.9 11.7-.9 11.7h22.7 16H48h16 16 6.7 16 22.7c0 0-.1-7.4-.9-11.7C124.4 107.7 123.4 106.5 122.1 105.8zM32.5 38.8l-2.9 3.9 2.7 18.7h20.2c0 0-.1-8.1-1-12.9-.3-1.6-1.3-3-2.8-3.7-4.8-2.4-15.4-5.9-15.4-5.9H32.5zM18.2 27.6c.9 4.5 4.8 7.7 9.3 7.7 4.6 0 8.5-3.2 9.3-7.7l1.5-7.5c.8-6-3.9-11.4-9.9-11.4h-.9-.9c-6.1 0-10.8 5.4-9.9 11.4L18.2 27.6zM25.4 42.6l-2.9-3.9h-.9c0 0-10.6 3.5-15.4 5.9-1.5.7-2.5 2.1-2.8 3.7-.8 4.8-1 12.9-1 12.9h20.2L25.4 42.6z"/></svg>